<svg xmlns="http://www.w3.org/2000/svg" fill="none" viewBox="0 0 101 23" width="101" height="23">
  <defs/>
  <path fill="#4D52B1" fill-rule="evenodd" d="M14.927 2.634L.372 8.21l10.462 3.625-1.411-3.623 5.504 14.119L21.8 0l-6.874 2.634zM27.835 7.796a3.323 3.323 0 011.119-1.09c.463-.278 1.037-.418 1.722-.418.39 0 .742.045 1.058.133.316.088.598.197.846.326.249.13.474.278.675.448.202.17.383.336.544.5a5.87 5.87 0 00.665-.755c.202-.271.302-.543.302-.815a.954.954 0 00-.13-.489 1.617 1.617 0 00-.313-.387 5.19 5.19 0 00-.474-.357 4.252 4.252 0 00-.785-.407 7.025 7.025 0 00-1.108-.337 6.504 6.504 0 00-1.42-.142c-1.062 0-1.985.18-2.771.54-.786.36-1.44.86-1.965 1.498-.523.639-.916 1.396-1.178 2.272-.262.876-.393 1.831-.393 2.863 0 1.033.12 1.98.363 2.843.241.863.62 1.61 1.138 2.242a5.258 5.258 0 001.964 1.478c.793.352 1.733.53 2.821.53a7.65 7.65 0 001.501-.133 6.399 6.399 0 001.108-.316c.302-.122.547-.245.736-.367.188-.122.322-.224.403-.305.147-.15.255-.286.322-.408a.921.921 0 00.1-.449 1.01 1.01 0 00-.1-.407 3.74 3.74 0 00-.242-.448 4.917 4.917 0 00-.302-.428 14.955 14.955 0 00-.282-.347c-.121.11-.272.238-.453.388-.182.15-.393.292-.635.427-.242.136-.52.252-.836.347a3.587 3.587 0 01-1.038.143c-.712 0-1.306-.136-1.783-.408a3.351 3.351 0 01-1.158-1.08 4.4 4.4 0 01-.625-1.55 9.034 9.034 0 010-3.596c.12-.577.322-1.09.604-1.539zM90.004 8.175a1.777 1.777 0 00-.507-.153 3.554 3.554 0 00-.517-.04c-.27 0-.524.04-.76.121a3.166 3.166 0 00-.649.306 2.303 2.303 0 00-.496.407c-.136.149-.243.284-.325.406a1.137 1.137 0 00-.598-.781c-.317-.17-.692-.255-1.124-.255-.15 0-.278.004-.386.01a4.831 4.831 0 00-.527.072v10.003h2.757v-6.637c0-.342.142-.637.426-.884.283-.246.635-.37 1.054-.37.31 0 .58.051.81.154.23.102.46.25.69.44a8.46 8.46 0 00.446-.99c.148-.386.223-.729.223-1.027a.787.787 0 00-.142-.477.987.987 0 00-.376-.305zM42.051 15.3c0 .11-.05.23-.152.36-.101.13-.24.249-.416.358-.175.11-.378.198-.608.267-.23.068-.473.102-.73.102-.513 0-.878-.133-1.094-.4-.216-.266-.324-.59-.324-.973 0-.342.081-.622.243-.841.162-.219.372-.396.629-.533.256-.137.55-.232.881-.287.331-.055.666-.096 1.004-.123.094-.014.188-.02.283-.02h.284v2.09zm2.595.287v-3.854c0-.628-.068-1.178-.203-1.65a2.656 2.656 0 00-.68-1.179c-.317-.314-.729-.546-1.236-.697-.506-.15-1.124-.226-1.854-.226a8.12 8.12 0 00-1.5.134 6.96 6.96 0 00-1.257.348c-.365.144-.652.305-.861.482-.21.178-.314.362-.314.554 0 .136.057.345.172.625.114.28.267.536.456.769.432-.246.875-.465 1.328-.656.452-.192.969-.287 1.55-.287.621 0 1.07.11 1.348.332.277.22.416.594.416 1.12v.372h-.436a15.29 15.29 0 00-2.078.205 5.595 5.595 0 00-1.621.52c-.5.253-.916.597-1.247 1.033-.331.436-.497 1.002-.497 1.696 0 .559.095 1.032.284 1.42.19.389.433.699.73.93.297.232.628.399.993.501.365.102.73.153 1.095.153.702 0 1.297-.11 1.783-.328.487-.218.878-.485 1.176-.8.067.356.226.63.476.82.25.192.619.288 1.105.288a3.425 3.425 0 001.338-.267c-.311-.492-.467-1.278-.467-2.358zM68.056 12.061c0-.697.166-1.24.499-1.63.333-.39.778-.584 1.335-.584.652 0 1.104.205 1.356.615.251.41.377.943.377 1.6h-3.567zm5.118-2.757a3.512 3.512 0 00-1.288-.964c-.526-.239-1.168-.359-1.925-.359-.581 0-1.149.096-1.703.287a4.147 4.147 0 00-1.49.903c-.439.41-.79.926-1.054 1.548-.263.622-.395 1.363-.395 2.224 0 1.053.149 1.924.446 2.614.297.69.686 1.24 1.166 1.65.48.41 1.027.697 1.642.861.614.165 1.239.246 1.875.246.702 0 1.313-.078 1.834-.235.52-.157.922-.345 1.206-.564.338-.246.507-.52.507-.82 0-.205-.089-.468-.265-.79a5.726 5.726 0 00-.508-.789c-.123.11-.258.23-.407.36-.15.129-.326.248-.53.358a3.198 3.198 0 01-1.587.39c-.88 0-1.524-.25-1.93-.749-.407-.499-.638-1.124-.692-1.876h5.98c.013-.068.023-.16.03-.277l.02-.359a6.52 6.52 0 00.01-.348v-.287a5.94 5.94 0 00-.223-1.64 3.81 3.81 0 00-.72-1.384zM97.31 15.3c0 .11-.05.23-.151.36-.102.13-.24.249-.416.358-.175.11-.378.198-.608.267-.23.068-.473.102-.73.102-.513 0-.878-.133-1.094-.4-.216-.266-.324-.59-.324-.973 0-.342.08-.622.243-.841.162-.219.371-.396.628-.533s.55-.232.882-.287c.33-.055.665-.096 1.003-.123.095-.014.19-.02.284-.02h.284v2.09zm2.595.287v-3.854c0-.628-.068-1.178-.202-1.65a2.657 2.657 0 00-.68-1.179c-.317-.314-.73-.546-1.236-.697-.507-.15-1.125-.226-1.855-.226-.526 0-1.026.045-1.5.134a6.96 6.96 0 00-1.256.348c-.365.144-.652.305-.861.482-.21.178-.314.362-.314.554 0 .136.057.345.172.625.114.28.266.536.456.769.432-.246.874-.465 1.327-.656.453-.192.97-.287 1.55-.287.622 0 1.072.11 1.349.332.277.22.415.594.415 1.12v.372h-.435a15.286 15.286 0 00-2.078.205 5.594 5.594 0 00-1.622.52c-.5.253-.915.597-1.246 1.033-.331.436-.497 1.002-.497 1.696 0 .559.095 1.032.284 1.42.19.389.432.699.73.93.297.232.628.399.993.501.365.102.73.153 1.094.153.703 0 1.298-.11 1.784-.328.487-.218.878-.485 1.176-.8.067.356.226.63.476.82.25.192.618.288 1.105.288.23 0 .449-.02.658-.062.21-.04.436-.11.679-.205-.31-.492-.466-1.278-.466-2.358zM63.596 15.383a2.9 2.9 0 01-.567.42 3.183 3.183 0 01-.457.205c-.169.062-.348.092-.537.092-.77 0-1.155-.476-1.155-1.43v-4.372h2.838v-2.07H60.88V6.771c0-.341-.054-.618-.162-.83a1.349 1.349 0 00-.426-.503 1.506 1.506 0 00-.588-.246 3.482 3.482 0 00-.648-.061c-.108 0-.216.003-.325.01-.108.007-.21.017-.304.03-.108.015-.21.028-.304.042v9.512c0 .302.014.602.041.903.027.3.088.588.182.861.19.533.517.964.983 1.292.466.328 1.118.492 1.956.492a5.01 5.01 0 001.196-.135c.365-.09.676-.207.932-.352.257-.144.457-.303.599-.476.142-.172.212-.348.212-.527 0-.194-.054-.4-.162-.62a6.943 6.943 0 00-.466-.781zM52.857 15.26c-.323.547-.826.82-1.512.82-.363 0-.682-.075-.957-.226-.276-.15-.467-.28-.574-.39v-4.346c0-.26.11-.498.332-.717.222-.219.615-.328 1.18-.328.375 0 .694.072.956.215.262.144.47.345.625.605.155.26.266.567.333.922.067.356.1.738.1 1.148 0 .985-.16 1.75-.483 2.297zm2.21-6.192a3.12 3.12 0 00-1.202-.83 3.993 3.993 0 00-1.425-.257c-.7 0-1.28.134-1.738.4-.457.267-.794.53-1.01.79a1.059 1.059 0 00-.592-.759c-.314-.15-.695-.226-1.144-.226-.15 0-.279.004-.388.01a4.909 4.909 0 00-.531.072V22.33h2.757v-5.04a1.945 1.945 0 00.666.554c.202.11.448.208.738.297.29.09.63.134 1.02.134.471 0 .943-.082 1.415-.247.47-.164.899-.447 1.283-.85.384-.403.697-.95.94-1.64.241-.69.363-1.569.363-2.635 0-.915-.105-1.688-.313-2.317-.21-.628-.489-1.134-.84-1.517zM82.166 8.175a1.774 1.774 0 00-.506-.153 3.552 3.552 0 00-.517-.04c-.27 0-.524.04-.76.121a3.167 3.167 0 00-.649.306 2.308 2.308 0 00-.496.407c-.136.149-.244.284-.325.406a1.137 1.137 0 00-.598-.781c-.317-.17-.692-.255-1.125-.255-.148 0-.277.004-.385.01a4.812 4.812 0 00-.527.072v10.003h2.757v-6.637c0-.342.142-.637.426-.884.283-.246.635-.37 1.054-.37.31 0 .58.051.81.154.23.102.46.25.69.44.148-.272.297-.602.445-.99.149-.386.223-.729.223-1.027a.787.787 0 00-.142-.477.985.985 0 00-.375-.305z" clip-rule="evenodd"/>
</svg>
