<svg xmlns="http://www.w3.org/2000/svg" fill="none" viewBox="0 0 89 24" width="89" height="24">
  <defs/>
  <path fill="#4D52B1" fill-rule="evenodd" d="M88.193 16.374a1.683 1.683 0 01-.645.912c-.308.214-.675.371-1.13.457-.44.085-.91.128-1.819.128h-4.738V5.045h2.817c1.819 0 2.846.071 3.476.228.646.142 1.13.385 1.467.727.338.342.543.712.63 1.126.089.413.118 1.225.118 2.436v4.49c.015 1.154-.044 1.923-.176 2.322zM85.51 8.75c0-.57-.044-.94-.132-1.112-.088-.156-.308-.285-.645-.356-.338-.071-.954-.114-1.878-.114v8.565c1.218 0 1.951-.1 2.244-.285.279-.185.426-.713.426-1.568V8.75h-.015zm-12.395 9.12c-.425-1.966-1.423-6.797-1.76-9.32-.147 1.084-1.32 5.915-1.863 9.32h-3.227L63.755 5.046h2.831l.807 4.475.587 5.315c.132-2.237 1.305-6.17 1.863-9.79h3.286c.044.37.601 1.781.821 4.232l.822 5.473c.22-3.107.968-6.74 1.466-9.705h2.626L76.165 17.87h-3.051zM62.17 16.76c-.367.44-.88.783-1.51 1.025-.632.243-1.38.357-2.23.357-.807 0-1.526-.114-2.171-.343-.646-.228-1.16-.555-1.54-1.011a2.729 2.729 0 01-.69-1.468c-.073-.527-.117-1.454-.117-2.78v-2.194c0-1.282.029-2.194.102-2.736a2.765 2.765 0 01.675-1.468c.381-.442.88-.784 1.51-1.026.632-.242 1.38-.356 2.23-.356.807 0 1.526.114 2.172.342.645.228 1.158.556 1.54 1.012.381.441.616.94.69 1.468.073.527.117 1.453.117 2.764v2.21c0 1.282-.03 2.194-.103 2.735a2.765 2.765 0 01-.675 1.468zm-2.303-8.395c0-.598-.102-.969-.293-1.14-.19-.17-.602-.242-1.203-.242-.513 0-.91.071-1.188.2-.279.128-.41.527-.41 1.182v5.957c0 .741.087 1.197.263 1.368.176.171.602.257 1.247.257.675 0 1.1-.1 1.29-.3.192-.199.28-.67.28-1.425V8.366h.014zM49.365 13.91c0-.684-.147-1.097-.44-1.268-.293-.157-.865-.243-2.112-.243v5.544h-2.949l.044-12.883h2.655c1.775 0 2.978.057 3.609.185.63.129 1.144.428 1.54.927.396.498.601 1.296.601 2.394 0 .997-.175 1.895-.44 2.237-.278.342-.821.556-1.628.627.734.171 1.232.385 1.482.656.25.27.41.527.47.755.058.228.131.613.131 1.653v3.378l-2.934.07V13.91h-.029zm0-5.743c0-.4-.205-.87-.601-.998s-.91-.185-1.966-.185v3.634c1.027 0 1.54-.057 1.936-.157.411-.1.616-1.026.616-1.596v-.698h.015zm-8.552 9.348c-.704.414-1.584.627-2.61.627-1.072 0-1.966-.17-2.656-.527-.704-.356-1.159-.84-1.393-1.468-.22-.627-.338-1.567-.338-2.821V9.577c0-.927.03-1.61.103-2.081.073-.456.279-.912.63-1.34.353-.427.822-.77 1.438-1.011.616-.243 1.32-.37 2.113-.37 1.085 0 1.98.184 2.684.57.704.384 1.159.854 1.394 1.424.22.57.264.4.264 1.596v.998l-2.993-.043v-.87c0-.655-.073-1.068-.235-1.239-.161-.157-.498-.242-1.012-.242-.601 0-.968.1-1.13.299-.16.2-.234.627-.234 1.283v5.857c0 .627.073 1.04.235 1.24.161.199.513.284 1.085.284.543 0 .88-.1 1.056-.284.162-.2.25-.457.25-1.17l-.015-.925h3.007v.2c0 1.325-.044 1.752-.25 2.294-.234.555-.689 1.054-1.393 1.467zm-11.925 6.2h.821V0h-.821v23.713zm-16.312.2C5.828 23.913.372 18.597.372 12.055.372 5.501 5.843.2 12.576.2v4.19c-4.357 0-7.892 3.434-7.892 7.666 0 4.233 3.535 7.682 7.892 7.682 3.462 0 6.395-2.167 7.466-5.173-2.112 0-5.104-.015-5.104-.015v-4.389h9.696c.102.613.161 1.254.161 1.895-.015 6.556-5.471 11.857-12.219 11.857zm6.6-18.556c-.248.271-.542.542-.85.841L17.11 7.325h3.535v1.397h-5.692v-.727l1.98-2.323c.367-.356.675-.67.895-.94.22-.257.484-.57.602-.77.147-.228.895-.927.821-1.796-.323-.969-1.247-1.054-1.79-.983-.557.014-1.202.74-1.305 1.368 0 0-1.012-.143-1.232-.242.015-.271.499-1.454 1.437-1.981.455-.2.749-.3 1.277-.3.41 0 .777.058 1.114.157.338.1.617.257.851.456.235.2.631.442.748.741.191.385.338.784.338 1.183.044.884-.734 1.753-.88 1.981a4.685 4.685 0 01-.631.812z" clip-rule="evenodd"/>
</svg>
