<svg xmlns="http://www.w3.org/2000/svg" fill="none" viewBox="0 0 151 17" width="151" height="17">
  <defs/>
  <path fill="#4D52B1" d="M136.918 1.425c0-.8.651-1.425 1.426-1.425h10.602c.8 0 1.426.65 1.426 1.425v5.202c0 .8-.651 1.425-1.426 1.425h-1.1c-.8 0-2 .325-2.701.7l-3.851 2.15c-.7.376-.975.1-.65-.6l.45-.975c.326-.725-.05-1.3-.85-1.3h-1.925c-.8 0-1.426-.65-1.426-1.425V1.425M136.918 14.979c.075 0 .15-.025.2-.05.05-.025.075-.075.075-.175 0-.05 0-.1-.025-.125l-.075-.075c-.025-.025-.075-.025-.1-.025h-.375v.425l.3.025zm0-.75c.225 0 .4.05.5.15.1.1.175.225.175.4 0 .15-.05.275-.125.35a.57.57 0 01-.3.15l.425.725h-.425l-.425-.7h-.15v.7h-.375v-1.75l.7-.025zm-1.1 1.325c.05.15.125.275.225.375.1.1.225.2.35.25.15.05.3.1.45.1.175 0 .325-.025.45-.1.15-.05.25-.15.35-.25a.932.932 0 00.226-.375c.05-.15.075-.3.075-.45 0-.15-.025-.3-.075-.45a.932.932 0 00-.226-.375c-.1-.1-.225-.2-.35-.25-.15-.05-.3-.1-.45-.1-.175 0-.325.025-.45.1-.15.05-.25.15-.35.25-.1.1-.175.225-.225.375-.05.15-.075.3-.075.45 0 .175.025.325.075.45zm-.45-1.075c.075-.2.2-.375.35-.525.15-.15.325-.275.525-.35.2-.075.4-.125.625-.125.225 0 .425.05.625.125.201.075.376.2.526.35.15.15.275.325.35.525.075.2.125.4.125.625 0 .225-.05.425-.125.625s-.2.375-.35.525c-.15.15-.325.25-.526.35-.2.075-.4.125-.625.125a1.74 1.74 0 01-.625-.125 1.49 1.49 0 01-.525-.35 1.49 1.49 0 01-.35-.525c-.075-.2-.125-.4-.125-.625 0-.225.05-.425.125-.625zM131.542 10.228h-2.351c-.175 0-.225-.1-.225-.225l.025-.3c.05-.626.626-1.076 1.401-1.076.75 0 1.35.45 1.4 1.05l.025.3c0 .15-.05.25-.275.25zm-1.225-4.051c-2.526 0-4.351 1.825-4.351 3.9v2.776c0 2.326 1.725 3.926 4.351 3.926 1.425 0 2.45-.5 3.176-1.2.35-.35.625-.75.85-1.15.125-.225.075-.45-.075-.525l-2.126-1.076c-.125-.075-.25-.025-.325.175-.3.75-.8 1.1-1.525 1.1-.8 0-1.351-.524-1.351-1.225v-.475c0-.15.075-.225.25-.225h5.202c.125 0 .225-.075.225-.225v-1.875c-.025-2.05-1.801-3.901-4.301-3.901zM121.015 8.802c.675 0 1.15.425 1.525 1.3.075.15.175.2.325.125l2.101-.95c.125-.075.175-.2.1-.375-.2-.45-.4-.85-.676-1.2-.7-.95-1.75-1.475-3.4-1.475-2.676 0-4.276 1.6-4.276 3.925v2.626c0 2.326 1.6 3.901 4.276 3.901 1.5 0 2.5-.45 3.2-1.25.376-.4.651-.9.876-1.45.075-.176.025-.276-.1-.35l-2.101-.976c-.15-.075-.25-.025-.325.125-.375.85-.85 1.3-1.525 1.3-.801 0-1.301-.55-1.301-1.25v-2.8c0-.65.525-1.226 1.301-1.226zM114.838 6.477h-2.55c-.15 0-.226.075-.226.225v9.552c0 .15.076.225.226.225h2.55c.125 0 .2-.075.2-.225V6.702c-.025-.175-.1-.225-.2-.225zM113.538 2.251c-.825 0-1.5.675-1.5 1.5 0 .826.675 1.5 1.5 1.5s1.5-.674 1.5-1.5c.025-.825-.675-1.5-1.5-1.5zM110.712 6.477h-2.726c-.1 0-.2.075-.225.175l-1.6 4.626c-.075.225-.225.8-.25 1.075h-.075c-.05-.275-.15-.8-.25-1.075l-1.676-4.651c-.05-.1-.1-.15-.225-.15h-2.725c-.2 0-.25.125-.2.3l3.851 9.527c.05.1.125.15.225.15h2c.1 0 .2-.05.225-.15l3.876-9.527c.05-.175-.025-.3-.225-.3zM96.634 12.753c0 .7-.576 1.25-1.326 1.25-.775 0-1.3-.525-1.3-1.25v-2.575c0-.7.525-1.2 1.3-1.2.776 0 1.326.524 1.326 1.2v2.575zm2.75-9.827H96.86c-.1 0-.225.075-.225.225v2.976c0 .325.075.95.075.95-.425-.375-1.15-.6-1.65-.6-2.351 0-4.027 1.575-4.027 3.9v2.176c0 2.5 1.45 3.901 4.076 3.901.6 0 1.3-.2 1.75-.575.126-.1.276-.075.276.1v.325c0 .075.075.15.175.15h2.075c.125 0 .225-.075.225-.225V3.126c0-.125-.1-.2-.225-.2zM85.431 11.853h-1.3c-.225 0-.3-.125-.25-.25l.45-1.75c.225-.8.375-1.751.425-2.301h.075c.05.55.175 1.5.375 2.3l.45 1.75c.05.1-.05.25-.225.25zm.5-8.777c-.05-.1-.1-.15-.225-.15h-1.925c-.125 0-.175.05-.225.15L79.38 16.179c-.075.175.025.275.225.275h2.7c.1 0 .15-.05.2-.15l.626-1.95c.05-.1.075-.125.225-.125h2.825c.15 0 .2.025.225.125l.6 1.95c.05.1.076.15.226.15h2.725c.225 0 .275-.1.225-.275l-4.25-13.103zM71.653 10.228h-2.35c-.176 0-.226-.1-.226-.225l.025-.3c.05-.626.625-1.076 1.4-1.076.75 0 1.35.45 1.4 1.05l.026.3c-.025.15-.05.25-.275.25zm-1.25-4.051c-2.526 0-4.352 1.825-4.352 3.9v2.776c0 2.326 1.726 3.926 4.352 3.926 1.425 0 2.45-.5 3.175-1.2.35-.35.626-.75.85-1.15.126-.225.076-.45-.075-.525l-2.125-1.076c-.125-.075-.25-.025-.325.175-.3.75-.8 1.1-1.526 1.1-.8 0-1.35-.524-1.35-1.225v-.475c0-.15.075-.225.25-.225h5.177c.125 0 .225-.075.225-.225v-1.875c.025-2.05-1.75-3.901-4.276-3.901zM64.776 6.527a3.185 3.185 0 00-.55-.05c-.825 0-1.6.375-1.925.825-.1.1-.276.075-.276-.1v-.5c0-.15-.075-.225-.225-.225h-2.05c-.125 0-.225.075-.225.225v9.552c0 .15.075.225.225.225h2.526c.125 0 .225-.075.225-.225v-5.702c0-.75.525-1.3 1.3-1.3.325 0 .6.05.85.1.2.05.325-.025.325-.225V6.702c0-.075-.075-.175-.2-.175zM53.398 14.153h-.8c-.45 0-.7-.275-.7-.875 0-.425.3-.725.725-.725h1.826c.125 0 .175.225.175.3-.05.775-.65 1.3-1.226 1.3zm-.075-7.926c-1.325 0-2.325.425-3.05 1.1a5.5 5.5 0 00-1 1.275c-.126.225-.076.45.074.525l2.126 1.075c.125.075.25.025.325-.175.3-.75.8-1.1 1.525-1.1.8 0 1.3.55 1.3 1.226v.1c0 .15-.074.225-.224.225h-1.9c-1.901 0-3.427 1.025-3.427 2.825v.225c0 1.826 1.376 2.926 3.226 2.926h.75c.575 0 1.226-.2 1.676-.55.075-.075.2-.05.225.025l.075.375c.025.1.1.175.225.175h2.1c.125 0 .225-.075.225-.225v-6.077c0-2.325-1.625-3.95-4.25-3.95zM48.222 6.477h-2.6c-.126 0-.225.075-.225.175l-.976 4.026c-.1.45-.2 1.1-.225 1.55h-.075a9.276 9.276 0 00-.225-1.55l-.975-4.026a.22.22 0 00-.225-.175H40.57c-.125 0-.2.075-.225.175l-.95 4.026c-.1.45-.2 1.025-.225 1.45h-.05c-.025-.425-.1-1-.225-1.45l-1-4.026c-.025-.1-.075-.175-.225-.175h-2.651c-.2 0-.25.1-.2.275l3.026 9.552c.05.1.1.15.225.15h1.9c.125 0 .2-.05.225-.15l1.175-4.451c.126-.5.226-1.325.226-1.325h.075s.1.85.225 1.325l1.15 4.426c.025.1.075.175.225.175h1.875c.1 0 .175-.05.225-.15l3.076-9.552c.05-.15-.025-.275-.225-.275zM33.744 6.477h-1.45c-.2 0-.25-.075-.25-.225v-1.35c0-.15-.05-.2-.2-.2h-1.35c-.076 0-.201.05-.251.1l-2.676 2.675v1.45c0 .15.075.2.225.2h1.076c.2 0 .25.075.25.225v3.351c0 2.576 1.6 3.901 3.65 3.901h.9c.2 0 .276-.075.276-.225v-2.2c0-.126-.075-.226-.225-.226h-.35c-.875 0-1.3-.525-1.3-1.45V9.377c0-.15.075-.225.25-.225h1.45c.15 0 .2-.05.2-.2V6.677c-.025-.15-.075-.2-.225-.2zM27.317 2.826a8.491 8.491 0 00-1.525-.15c-3.176 0-4.376 2.2-4.376 3.95v.526c0 .15-.075.225-.225.225h-.5c-.125 0-.225.075-.225.225v2.25c0 .15.075.226.225.226h.5c.2 0 .225.075.225.225v5.976c0 .15.075.225.225.225h2.526c.15 0 .224-.075.224-.225v-5.976c0-.15.076-.226.226-.226h1.4c.15 0 .225-.075.225-.225v-2.25c0-.15-.075-.225-.225-.225h-1.4c-.175 0-.226-.075-.226-.225v-.575c0-.75.526-1.226 1.35-1.226.276 0 .576.05.826.1.15.05.225 0 .275-.125l.675-2.2c.025-.15-.025-.275-.2-.3zM16.215 12.878c0 .7-.55 1.25-1.3 1.25-.8 0-1.351-.55-1.351-1.25v-2.8c0-.676.55-1.25 1.35-1.25.75 0 1.3.55 1.3 1.25v2.8zm-1.3-6.651c-2.626 0-4.352 1.6-4.352 3.925v2.626c0 2.326 1.726 3.901 4.351 3.901 2.576 0 4.301-1.575 4.301-3.9v-2.627c0-2.325-1.725-3.925-4.3-3.925zM5.962 8.377c-1.175-.45-2.45-.775-2.45-1.75 0-.775.575-1.3 1.325-1.3h.325c.725 0 1.225.35 1.525 1.1.075.2.2.225.325.175l2.126-1.075c.125-.075.2-.3.075-.525-.175-.326-.375-.65-.65-.926-.75-.825-1.826-1.45-3.401-1.45h-.325c-2.676 0-4.351 1.6-4.351 4.026 0 2.476 1.6 3.4 3.576 4.2 1.3.526 2.4.801 2.4 1.876 0 .876-.675 1.276-1.45 1.276h-.525c-.725 0-1.225-.35-1.526-1.1-.075-.2-.2-.226-.325-.176L.511 13.804c-.125.075-.2.3-.075.525.2.35.425.675.7 1 .725.825 1.8 1.375 3.326 1.375h.675c2.726 0 4.326-1.575 4.326-4 0-2.526-1.475-3.526-3.5-4.327z"/>
</svg>
