<svg xmlns="http://www.w3.org/2000/svg" fill="none" viewBox="0 0 236 40" width="236" height="40">
  <defs/>
  <path fill="#333E49" d="M214.571 33.094V3.889H210.715v29.205h3.856zM232.365 26.096c-.717 2.976-3.251 4.188-5.675 3.912-2.754-.275-5.343-2.48-4.958-6.006h4.958c1.543 0 3.14-.11 4.518-.551 2.368-.716 3.746-2.094 4.241-3.692 1.268-3.802-2.203-8.817-8.042-8.706-.276 0-.496 0-.772.055-6.335.496-9.255 5.62-9.034 12.233.165 5.676 3.636 9.864 9.034 10.194.386 0 .827.055 1.212 0 4.132-.165 7.713-2.865 8.153-7.439h-3.635zm-10.633-6.282c.331-1.708 1.102-3.306 2.59-4.243.11-.055.22-.11.275-.165l.331-.165c.495-.276 1.101-.441 1.762-.496.386-.055.772-.055 1.157-.055.992 0 2.094.165 2.865.826 1.157.992 1.377 2.645.496 3.802-.937 1.157-2.81 1.378-4.518 1.378-.881 0-1.707-.055-2.368-.055h-2.7c0-.33.055-.551.11-.827zM181.022 12.154c-1.267-.606-2.589-.937-3.857-.992-4.131-.11-7.877 2.59-8.318 7.44h3.691c.331-1.378.937-2.37 1.763-3.031a4.637 4.637 0 012.864-.992c1.047 0 2.094.33 2.975.992 1.322.992 2.204 2.7 1.983 5.07h-4.958c-1.542 0-3.14.11-4.517.55-2.369.717-3.746 2.094-4.242 3.692-1.267 3.803 2.204 8.817 8.043 8.707.276 0 .496 0 .772-.055 3.801-.33 6.886-2.48 8.208-6.227.661-1.874.826-3.968.826-6.006-.11-4.133-1.983-7.605-5.233-9.148zm1.101 12.785c-.606 3.03-2.313 4.738-4.958 5.124-.385.055-.771.11-1.156.11-.992 0-2.094-.165-2.865-.826-1.157-.992-1.377-2.645-.496-3.802.937-1.158 2.81-1.378 4.517-1.378.882 0 1.708.055 2.369.055h2.7c-.055.22-.055.441-.111.716zM206.197 15.185c-.055-.165-.165-.276-.22-.44-.11-.166-.165-.276-.275-.442-.496-.716-1.047-1.322-1.763-1.763-.11-.11-.276-.165-.386-.275a1.636 1.636 0 00-.441-.22c-.44-.221-.936-.387-1.432-.552-.11 0-.22-.055-.33-.055-.662-.11-1.323-.22-2.094-.22h-.661c-.496 0-.991.055-1.432.165-.331.055-.606.11-.882.165a3.185 3.185 0 00-.771.276 7.59 7.59 0 00-1.322.771c-.22.165-.441.386-.606.606V3.89h-4.021v18.57c0 1.763.11 3.361.33 4.739.11.716.276 1.322.496 1.928.22.607.496 1.102.826 1.598a6.3 6.3 0 002.7 2.205c.55.275 1.212.44 1.983.55.716.11 1.542.166 2.479.166h.22c1.708 0 3.14-.386 4.297-1.047.606-.33 1.157-.716 1.598-1.212.495-.441.881-.937 1.212-1.488.33-.551.606-1.102.881-1.708.22-.607.441-1.213.551-1.874.11-.55.22-1.102.275-1.598l.055-.33c.056-.662.111-1.268.111-1.93v-.054c0-1.653-.166-3.196-.441-4.574-.276-.937-.551-1.818-.937-2.645zm-2.589 8.707c-.055.495-.11.991-.165 1.432-.11.441-.22.937-.331 1.323-.165.386-.33.771-.55 1.157-.221.33-.441.661-.717.937-.275.275-.551.55-.936.716-.22.165-.441.276-.716.33-.11.056-.276.11-.386.11-.386.111-.771.166-1.212.166h-.165c-.551 0-.992-.055-1.432-.11-.441-.055-.772-.22-1.102-.386a3.762 3.762 0 01-1.157-.936c-.055-.056-.11-.166-.165-.22-.055-.111-.111-.166-.166-.276-.165-.331-.33-.662-.44-1.103a7.861 7.861 0 01-.276-1.322 9.062 9.062 0 01-.11-1.267v-.276c-.055-.551-.055-1.157-.055-1.763v-.055c0-.882.055-1.709.11-2.48l.055-.44c0-.166.055-.276.055-.442v-.055c.055-.496.166-.937.276-1.322.11-.386.275-.772.44-1.102.276-.441.606-.827.992-1.102.055-.056.165-.11.22-.166.056-.055.166-.11.276-.165.275-.11.551-.22.881-.33l.221-.056c.44-.11.881-.11 1.377-.11h.22c.441 0 .882.055 1.212.11.221.055.386.11.606.165.165.056.386.11.551.22.331.166.661.387.937.607.275.22.495.496.716.827.275.44.551.991.716 1.598.055.11.055.22.11.385.055.11.055.276.055.386.11.496.165.992.165 1.598.055.551.055 1.157.055 1.819-.11.66-.11 1.157-.165 1.598zM109.406 11.658h-.165l-.055.165-4.958 16.422-3.856-16.422v-.165h-3.636l-.055.165-3.856 16.422-4.959-16.422v-.165h-4.131l.11.276 6.886 20.719.055.165h3.856l.056-.165L98.553 18.6l3.856 14.052.055.165h3.856l.055-.165 6.886-20.72.111-.275h-3.967zM144.939 11.603h-.937c-1.267 0-2.424.11-3.36.386-.165.055-.386.11-.551.165-.055 0-.055 0-.11.055-.11.055-.276.11-.386.165-.826.331-1.542.772-2.093 1.268-.11.11-.221.22-.331.275-.11.11-.22.22-.275.331a7.904 7.904 0 00-.827 1.212c-.22.441-.385.882-.495 1.378-.111.386-.166.771-.221 1.212l-.055.22c-.055.497-.11.937-.11 1.433v13.115H139.044V19.703c0-.22 0-.44.055-.716.055-.22.055-.496.166-.771.11-.386.22-.717.44-1.103a.418.418 0 00.11-.22.744.744 0 00.166-.22c.275-.331.606-.607.991-.882.055-.055.166-.11.221-.165.11-.056.165-.11.275-.166.661-.33 1.488-.496 2.534-.496h1.212a.7.7 0 01.331.055h.551v-3.471h-.221c-.33.11-.661.055-.936.055zM159.812 21.632l6.556-9.643.22-.386H161.906l-.055.11-9.475 14.438V3.668h-3.857v29.15h3.746l.111-.11 5.068-7.604 5.123 7.604.055.11H167.249l-.22-.33-7.217-10.856zM131.772 18.712a1.96 1.96 0 00-.11-.551v-.055a10.541 10.541 0 00-.826-2.645c-.055-.166-.165-.331-.22-.441-.056-.165-.166-.276-.276-.441-.661-1.047-1.542-1.929-2.699-2.535-.551-.33-1.267-.55-1.983-.716-.717-.165-1.598-.22-2.479-.22-1.267 0-2.424.165-3.361.495-.165.056-.385.11-.551.22-.165.056-.33.166-.496.276-.55.33-1.101.717-1.542 1.102-.441.441-.826.882-1.157 1.433-.441.772-.826 1.543-1.047 2.48-.055.165-.11.33-.11.55-.055.166-.055.387-.11.552-.11.55-.165 1.102-.22 1.653l-.055.33c-.055.662-.111 1.378-.111 2.04v.055c0 .991.056 1.928.166 2.92 0 .165.055.386.055.551 0 .165.055.386.11.551v.055c.11.662.275 1.323.496 1.929.22.606.496 1.157.771 1.708a6.737 6.737 0 001.763 1.984c.11.11.275.22.441.33.165.11.33.221.495.276a7.406 7.406 0 001.653.661c.11.056.22.056.331.11.716.166 1.542.221 2.423.221.937 0 1.763-.055 2.479-.22.772-.166 1.433-.386 1.984-.717.826-.44 1.487-1.047 2.093-1.708.11-.11.22-.276.331-.386.11-.11.165-.275.275-.44a9.092 9.092 0 001.047-2.48 1.96 1.96 0 00.11-.551c.055-.166.055-.386.11-.551.11-.551.165-1.102.22-1.653l.056-.331c.055-.661.11-1.323.11-2.039v-.055c0-.992-.055-1.984-.166-2.92.056-.442 0-.662 0-.827zm-3.691 5.29c-.055.55-.11 1.102-.165 1.598-.11.661-.22 1.267-.441 1.818-.055.11-.11.22-.11.276-.055.11-.11.22-.165.275a2.44 2.44 0 01-.661.827c-.22.22-.551.44-.826.606-.276.11-.551.22-.882.33l-.22.056c-.441.11-.882.11-1.377.11-.551 0-.992-.055-1.433-.11-.44-.055-.771-.22-1.101-.386a3.219 3.219 0 01-.827-.606c-.22-.22-.44-.496-.661-.827-.165-.33-.33-.66-.441-1.102a7.967 7.967 0 01-.275-1.322c-.055-.496-.11-.992-.165-1.598-.055-.551-.055-1.157-.055-1.819 0-.661 0-1.267.055-1.818.055-.551.11-1.102.165-1.598.055-.496.165-.937.275-1.323.111-.385.276-.771.441-1.102.165-.33.386-.606.661-.826.221-.22.551-.441.827-.607.22-.11.44-.22.716-.275.11-.055.275-.055.385-.11.441-.11.882-.11 1.378-.11.716 0 1.377.11 1.928.275.11.055.22.055.275.11.11.055.165.055.276.11.33.166.606.386.826.607.22.22.441.496.661.826.275.441.441.992.606 1.598.055.11.055.276.055.386 0 .11.055.276.055.386.055.496.11.992.165 1.598.055.55.055 1.157.055 1.818.056.772.056 1.378 0 1.929z"/>
  <path fill="#00756A" d="M67.76 11.548c-.056.275-.11.55-.166.882-1.653 12.563-8.924 23.198-19.942 17.357-.22.276-.44.607-.661.882-1.102 1.322-2.369 2.425-3.526 3.361-.055 0-.055-.055-.11-.055a18.666 18.666 0 003.636 1.819c13.552 5.235 25.947-7.715 27.159-23.97l-6.39-.276zM46.99 21.742c2.425-4.298 3.692-8.1 3.637-11.02-.056-3.637-1.488-6.337-3.636-8.1-6.39-5.346-18.95-2.48-18.785 8.265.055 4.078 2.038 9.313 7.161 15.65 0 0 2.865-2.535 3.47-4.85-13.606-18.515 14.985-19.507.772.992 0 0-1.653 2.7-3.746 4.464-4.462 4.188-8.484 5.51-11.954 4.96-12.175-1.985-14.103-20.17-15.04-30.97H0V3.56c.44 21.435 15.645 51.246 39.884 27.827 2.424-2.425 3.746-4.298 3.746-4.298 1.267-1.929 2.424-3.692 3.36-5.346z"/>
</svg>
